HIERARCHY
ROOT Hips
{
    OFFSET 0.000000 0.000000 0.000000
    CHANNELS 6 Xposition Yposition Zposition Zrotation Xrotation Yrotation
    JOINT Spine
    {
        OFFSET -0.000000 7.236184 0.000000
        CHANNELS 3 Zrotation Xrotation Yrotation
        JOINT Spine1
        {
            OFFSET -0.000000 20.420147 0.000000
            CHANNELS 3 Zrotation Xrotation Yrotation
            JOINT Neck
            {
                OFFSET -0.000000 20.336288 1.848754
                CHANNELS 3 Zrotation Xrotation Yrotation
                JOINT Head
                {
                    OFFSET -0.000000 12.354461 -1.764923
                    CHANNELS 3 Zrotation Xrotation Yrotation
                    End Site
                    {
                        OFFSET -0.000000 22.061537 0.000000
                    }
                }
            }
            JOINT LeftShoulder
            {
                OFFSET 3.573296 18.396038 -0.314103
                CHANNELS 3 Zrotation Xrotation Yrotation
                JOINT LeftArm
                {
                    OFFSET 10.880760 0.000000 0.000000
                    CHANNELS 3 Zrotation Xrotation Yrotation
                    JOINT LeftForeArm
                    {
                        OFFSET 27.185530 0.000000 0.000000
                        CHANNELS 3 Zrotation Xrotation Yrotation
                        JOINT LeftHand
                        {
                            OFFSET 27.825975 0.000000 0.000000
                            CHANNELS 3 Zrotation Xrotation Yrotation
                            End Site
                            {
                                OFFSET 13.236923 0.000000 0.000000
                            }
                        }
                    }
                }
            }
            JOINT RightShoulder
            {
                OFFSET -3.474926 18.396038 -0.314103
                CHANNELS 3 Zrotation Xrotation Yrotation
                JOINT RightArm
                {
                    OFFSET -10.880760 0.000000 0.000000
                    CHANNELS 3 Zrotation Xrotation Yrotation
                    JOINT RightForeArm
                    {
                        OFFSET -27.185530 0.000000 0.000000
                        CHANNELS 3 Zrotation Xrotation Yrotation
                        JOINT RightHand
                        {
                            OFFSET -27.825975 0.000000 0.000000
                            CHANNELS 3 Zrotation Xrotation Yrotation
                            End Site
                            {
                                OFFSET -13.236923 0.000000 0.000000
                            }
                        }
                    }
                }
            }
        }
    }
    JOINT LeftUpLeg
    {
        OFFSET 8.824615 0.000000 0.000000
        CHANNELS 3 Zrotation Xrotation Yrotation
        JOINT LeftLeg
        {
            OFFSET -0.000000 -35.111282 0.000000
            CHANNELS 3 Zrotation Xrotation Yrotation
            JOINT LeftFoot
            {
                OFFSET -0.000000 -42.324711 0.000000
                CHANNELS 3 Zrotation Xrotation Yrotation
                JOINT LeftToeBase
                {
                    OFFSET -0.000000 -5.735999 13.236923
                    CHANNELS 3 Zrotation Xrotation Yrotation
                    End Site
                    {
                        OFFSET -0.000000 0.000000 3.529846
                    }
                }
            }
        }
    }
    JOINT RightUpLeg
    {
        OFFSET -8.824615 0.000000 0.000000
        CHANNELS 3 Zrotation Xrotation Yrotation
        JOINT RightLeg
        {
            OFFSET -0.000000 -35.111282 0.000000
            CHANNELS 3 Zrotation Xrotation Yrotation
            JOINT RightFoot
            {
                OFFSET -0.000000 -42.324711 0.000000
                CHANNELS 3 Zrotation Xrotation Yrotation
                JOINT RightToeBase
                {
                    OFFSET -0.000000 -5.735999 13.236923
                    CHANNELS 3 Zrotation Xrotation Yrotation
                    End Site
                    {
                        OFFSET -0.000000 0.000000 3.529846
                    }
                }
            }
        }
    }
}
MOTION
Frames:    5
Frame Time:    0.008333
6.170194    88.365433    107.510635    3.662720    -9.632270    178.249756    -4.343400    -7.902431    -8.321955    5.438035    -1.824772    -7.935119    14.531858    1.067696    11.277300    11.114849    -1.935789    11.456542    15.560998    -4.942970    -17.542643    -11.549681    -26.009375    -20.017279    42.455032    -47.245766    -58.822720    23.441483    -24.778631    12.703568    -0.864760    2.018209    -13.372373    19.044498    -13.081260    -4.747143    -7.548118    -7.924676    13.614130    -2.631840    -7.198831    7.390560    13.446999    -7.364664    -1.739567    1.052254    7.235220    16.877722    -14.181132    2.501436    -17.241102    0.477711    -2.834509    -0.532306    -24.986837    -35.989716    -6.673772    17.373644    46.954510    -10.927396    21.797205    13.304680    -8.174617    1.078272    -4.117788    -1.173074
5.874107    88.610336    107.705925    3.929584    -9.737677    177.133423    -4.228654    -7.780770    -8.555032    5.440363    -1.499891    -8.196032    14.861938    1.181537    11.849119    10.928393    -1.830655    11.977921    15.165220    -4.277943    -18.219166    -12.549354    -26.584927    -20.782499    42.844715    -48.462715    -61.310234    24.382881    -24.806166    12.863597    -0.200298    2.298771    -13.487536    20.215569    -11.337507    -4.436310    -7.486034    -8.369840    13.864106    -2.962352    -7.657081    7.399338    13.611826    -7.197808    -1.671386    1.060245    7.170246    17.722300    -14.105223    2.939753    -17.131504    0.446145    -2.995391    -0.497284    -25.223713    -38.980228    -7.277883    18.175446    49.944801    -10.962375    21.687237    13.380440    -8.211998    1.174322    -3.809870    -1.276990
5.611346    88.843239    107.893501    4.184995    -9.838680    176.046494    -4.107706    -7.673865    -8.767477    5.409692    -1.175109    -8.436320    15.157125    1.316970    12.376092    10.736822    -1.748428    12.462818    14.798528    -3.623130    -18.868298    -13.618946    -27.094545    -21.547798    43.129215    -49.568569    -63.654190    25.192839    -24.826185    12.942698    0.408714    2.564010    -13.607366    21.345970    -9.691781    -4.136192    -7.460935    -8.802889    14.197584    -3.219561    -8.087930    7.375465    13.788598    -7.068380    -1.589913    1.063015    7.176680    18.542921    -14.029861    3.350640    -17.039242    0.406706    -3.150760    -0.453459    -25.379284    -41.870224    -7.858221    19.003927    52.776211    -11.114609    21.524363    13.376125    -8.210264    1.249641    -3.552244    -1.358380
5.368727    89.070084    108.079170    4.437509    -9.934980    174.955490    -3.979195    -7.574266    -8.969480    5.347327    -0.835644    -8.666923    15.433378    1.468525    12.879760    10.533043    -1.682634    12.928899    14.442686    -2.963665    -19.503319    -14.782887    -27.551031    -22.343771    43.335419    -50.610451    -65.933792    25.931339    -24.840786    12.966132    0.989626    2.821227    -13.738036    22.471943    -8.094751    -3.834670    -7.467760    -9.234567    14.599882    -3.419723    -8.504536    7.326707    13.982220    -6.970642    -1.471288    1.058951    7.258391    19.341244    -13.948054    3.736749    -16.962803    0.358487    -3.303536    -0.399815    -25.466993    -44.754349    -8.416451    19.930481    55.542648    -11.420596    21.318764    13.318783    -8.166571    1.311112    -3.329746    -1.424737
5.123563    89.308456    108.279442    4.710710    -10.031391    173.761810    -3.832817    -7.470839    -9.180781    5.244586    -0.444005    -8.910091    15.720475    1.645848    13.406680    10.292888    -1.627253    13.417399    14.061520    -2.241931    -20.172056    -16.152693    -27.985062    -23.253979    43.491291    -51.678146    -68.341423    26.677042    -24.845692    12.941287    1.599882    3.091557    -13.892170    23.690895    -6.411587    -3.503743    -7.507881    -9.697940    15.094064    -3.583703    -8.939258    7.252666    14.213884    -6.899032    -1.279227    1.044246    7.438010    20.164680    -13.850020    4.120445    -16.900015    0.296099    -3.465262    -0.330337    -25.487179    -47.897064    -8.987030    21.108162    58.487068    -11.972849    21.062157    13.217681    -8.069925    1.365250    -3.121883    -1.483118
